<svg width="28" height="23" viewBox="0 0 28 23" fill="none" xmlns="http://www.w3.org/2000/svg">
<path d="M20.6468 5.35711L16.7353 14.3298C16.6755 14.4511 16.6452 14.5854 16.6471 14.7212C16.6471 16.2622 17.2451 17.74 18.3097 18.8296C19.3742 19.9193 20.818 20.5314 22.3235 20.5314C23.829 20.5314 25.2729 19.9193 26.3374 18.8296C27.4019 17.74 28 16.2622 28 14.7212M20.6468 5.35711L14.7353 2.40838C15.3512 2.65009 15.8623 3.10923 16.1765 3.70288L22.2059 2.79974M20.6468 5.35711L20.9556 5.31136L20.8824 4.81675L20.424 4.61695L20.2993 4.90314L16.4118 5.47906C16.2842 6.07646 15.9609 6.61124 15.4954 6.99458C15.0299 7.37791 14.4504 7.58674 13.8529 7.58639C13.3832 7.59336 12.9206 7.46784 12.516 7.22357C12.1113 6.9793 11.7802 6.62571 11.5588 6.20157L10.6176 6.3521M20.6468 5.35711L14.2353 0.5M28 14.7212C27.997 14.5887 27.9772 14.4572 27.9412 14.3298M28 14.7212L27.5001 14.7326C27.5001 14.7308 27.5 14.7291 27.5 14.7273M28 14.7212H27.5C27.5 14.7232 27.5 14.7253 27.5 14.7273M27.9412 14.3298L23.1471 3.31152M27.9412 14.3298L27.4827 14.5293L27.468 14.4954M27.9412 14.3298L27.4601 14.466C27.4628 14.4758 27.4655 14.4856 27.468 14.4954M23.1471 3.31152C23.0774 3.1629 22.9693 3.03664 22.8345 2.94643C22.6997 2.85621 22.5433 2.80549 22.3824 2.79974M23.1471 3.31152L22.6944 3.52381C22.6936 3.5221 22.6928 3.52041 22.6919 3.51872M23.1471 3.31152L22.6886 3.51101L22.6919 3.51872M22.3824 2.79974H22.2059M22.3824 2.79974V3.29974H22.3715M22.3824 2.79974L22.3645 3.29942C22.3669 3.2995 22.3692 3.29961 22.3715 3.29974M22.2059 2.79974L22.28 3.29422L22.2431 3.29974M22.2059 2.79974V3.29974H22.2431M10.6176 6.3521L10.5447 5.85744L10.5417 5.85789M10.6176 6.3521L10.5387 5.85837L10.5417 5.85789M10.6176 6.3521L7.4536 6.81845L7.39964 6.69446L6.94118 6.89398L7.01409 7.38864L7.14787 7.36892L11.2647 16.8285C11.321 16.9403 11.3512 17.064 11.3529 17.1898C11.3529 18.7308 10.7549 20.2086 9.69034 21.2982C8.6258 22.3879 7.18196 23 5.67647 23C4.17098 23 2.72714 22.3879 1.6626 21.2982C0.598055 20.2086 0 18.7308 0 17.1898L13.4706 0.5M10.5417 5.85789L11.4799 5.70785L11.8355 5.65097L12.0021 5.97024C12.1816 6.31414 12.4492 6.59923 12.7744 6.79551C13.0994 6.99172 13.47 7.09202 13.8455 7.08644L13.8532 7.08633V7.08639C14.3334 7.08667 14.8008 6.91891 15.1775 6.60862C15.5546 6.29812 15.8185 5.86314 15.9228 5.37467L15.9952 5.03531L16.3385 4.98446L20.8091 4.32215L21.701 4.19001L21.3407 5.01656L17.1936 14.5297L17.1889 14.5404L17.1838 14.5509C17.159 14.6011 17.1462 14.6572 17.147 14.7145L17.1471 14.7212H17.1471C17.1471 16.1333 17.6952 17.4852 18.6673 18.4802C19.639 19.4748 20.9545 20.0314 22.3235 20.0314C23.6926 20.0314 25.008 19.4748 25.9798 18.4802C26.9505 17.4867 27.4984 16.1372 27.5 14.7273M10.5417 5.85789L6.86827 6.39932L6.22206 6.49457L6.48271 7.0935L10.8062 17.0281L10.8118 17.0409L10.8182 17.0535C10.8398 17.0964 10.8519 17.1445 10.8529 17.1939C10.8519 18.6045 10.3039 19.9548 9.3327 20.9488C8.36097 21.9434 7.04555 22.5 5.67647 22.5C4.30739 22.5 2.99197 21.9434 2.02025 20.9488C1.05074 19.9565 0.502942 18.6091 0.500012 17.2011C0.503609 17.1315 0.514202 17.0624 0.531581 16.9951L5.2585 6.10155C5.29585 6.05806 5.32152 6.0133 5.33922 5.97244L5.3739 5.92511L5.38212 5.9139L5.3927 5.90577L5.50769 5.8175L5.5718 5.79125L5.66226 5.75422L11.3665 4.92013L11.718 4.86872L11.7851 4.5198C11.8568 4.14695 12.0206 3.80023 12.2597 3.51256C12.4988 3.22495 12.8049 3.00614 13.1481 2.87581L13.4706 2.75334V2.40838V0.5M27.5 14.7273C27.4978 14.6489 27.4871 14.5712 27.468 14.4954M27.468 14.4954L22.6919 3.51872M22.6919 3.51872C22.6604 3.45371 22.6131 3.39995 22.5564 3.36196C22.5003 3.3244 22.4365 3.30332 22.3715 3.29974M22.3715 3.29974H22.2431M22.2431 3.29974L16.2505 4.19736L15.9002 4.24984L15.7345 3.93674C15.4754 3.44704 15.0553 3.07111 14.5526 2.87381L14.2353 2.74927V2.40838V0.5M14.2353 0.5H13.4706M14.2353 0.5H13.4706M12.5 4.93686C12.4999 5.11569 12.535 5.29299 12.6035 5.45827C12.672 5.62357 12.7726 5.77383 12.9001 5.89975C13.0275 6.0257 13.1791 6.12471 13.3461 6.19024C13.5075 6.25356 13.6797 6.28422 13.8529 6.28031V5.78011C13.9635 5.78415 14.0738 5.76534 14.1771 5.72479C14.2805 5.68425 14.3748 5.6228 14.4544 5.54412C14.534 5.46544 14.5973 5.37114 14.6405 5.26686C14.6837 5.16257 14.706 5.05045 14.7059 4.93717H15.2059C15.2059 4.93707 15.2059 4.93697 15.2059 4.93686C15.2058 4.57653 15.066 4.2287 14.8137 3.97043C14.5609 3.71169 14.2156 3.56414 13.8529 3.56414C13.4903 3.56414 13.145 3.71169 12.8922 3.97043C12.6399 4.2287 12.5001 4.57653 12.5 4.93686ZM12.5 4.93686L13 4.93717H12.5C12.5 4.93707 12.5 4.93697 12.5 4.93686ZM6.13538 8.20071L5.67844 7.14434L5.21819 8.19927L1.77701 16.0867L1.47164 16.7866H2.23529H9.08824H9.84929L9.54714 16.0881L6.13538 8.20071ZM1.85294 17.5929H1.22347L1.36591 18.2061C1.59543 19.194 2.14359 20.0764 2.92475 20.7099C3.70614 21.3436 4.67486 21.6909 5.67508 21.6937L5.67867 21.6937C6.67559 21.6893 7.64036 21.3404 8.4168 20.7059C9.19302 20.0715 9.73524 19.1892 9.95827 18.2032L10.0963 17.5929H9.47059H1.85294ZM25.7647 14.3181H26.5272L26.2233 13.6188L22.7821 5.70122L22.3216 4.64162L21.8643 5.70266L18.4526 13.6202L18.1519 14.3181H18.9118H25.7647ZM18.5294 15.1243H17.9037L18.0417 15.7347C18.2648 16.7206 18.807 17.6029 19.5832 18.2373C20.3596 18.8719 21.3244 19.2207 22.3213 19.2251L22.3249 19.2251C23.3251 19.2223 24.2939 18.875 25.0753 18.2413C25.8564 17.6078 26.4046 16.7254 26.6341 15.7375L26.7765 15.1243H26.1471H18.5294Z" fill="#202020" stroke="#202020"/>
</svg>
